<?xml version="1.0" encoding="UTF-8" standalone="no"?><!DOCTYPE svg PUBLIC "-//W3C//DTD SVG 1.1//EN" "http://www.w3.org/Graphics/SVG/1.1/DTD/svg11.dtd"><svg width="100%" height="100%" viewBox="0 0 290 243" version="1.1" xmlns="http://www.w3.org/2000/svg" xmlns:xlink="http://www.w3.org/1999/xlink" xml:space="preserve" xmlns:serif="http://www.serif.com/" style="fill-rule:evenodd;clip-rule:evenodd;stroke-linejoin:round;stroke-miterlimit:2;"><rect id="lgrcia" x="0" y="0" width="289.434" height="242.663" style="fill:none;"/><clipPath id="_clip1"><rect x="0" y="0" width="289.434" height="242.663"/></clipPath><g clip-path="url(#_clip1)"><path d="M107.968,73.568c-23.479,12.561 -36.02,25.056 -46.349,33.276c-26.224,20.869 -38.248,47.359 -43.248,77.917c-4.191,25.613 -3.077,54.412 -3.077,84.681c-0,7.133 3.046,13.925 8.372,18.669c5.326,4.744 12.425,6.987 19.509,6.165l209.03,-24.255c13.295,-1.543 23.017,-13.282 22.053,-26.632c-2.134,-29.581 1.622,-63.914 -3.372,-92.899c-4.382,-25.425 -14.818,-47.262 -35.561,-62.479c-10.932,-8.02 -21.408,-16.782 -32.429,-23.201c-2.601,-13.336 -7.787,-32.773 -16.919,-44.242c-10.446,-13.118 -24.434,-19.58 -42.11,-15.512c-20.64,4.749 -31.658,20.193 -35.289,39.944c-1.571,8.543 -1.285,19.639 -0.61,28.568Zm141.355,171.62l-209.029,24.254c-0,-57.647 -4.967,-109.724 36.893,-143.037c11.438,-9.103 25.705,-24.161 57.293,-37.902c1.767,-0.768 -12.849,-52.678 14.993,-59.084c26.596,-6.12 30.436,52.2 30.851,52.334c14.424,4.669 26.714,16.512 40.214,26.416c38.37,28.148 25.323,89.019 28.785,137.019Z" style="fill:#333;"/></g></svg>