<?xml version="1.0" encoding="UTF-8" standalone="no"?>
<!DOCTYPE svg PUBLIC "-//W3C//DTD SVG 1.1//EN" "http://www.w3.org/Graphics/SVG/1.1/DTD/svg11.dtd">
<svg width="100%" height="100%" viewBox="0 0 100 80" version="1.1" xmlns="http://www.w3.org/2000/svg" xmlns:xlink="http://www.w3.org/1999/xlink" xml:space="preserve" xmlns:serif="http://www.serif.com/" style="fill-rule:evenodd;clip-rule:evenodd;stroke-linecap:round;stroke-linejoin:round;stroke-miterlimit:1.5;">
    <g transform="matrix(1,0,0,1,-1457.07,-955.673)">
        <g transform="matrix(0.832754,0,0,0.832754,-849.322,821.044)">
            <g transform="matrix(1,0,0,1,1074,-684.113)">
                <path d="M1768.51,939.571C1767.55,940.429 1764.7,940.115 1763.82,940.09C1758.45,939.935 1758.56,939.867 1753.27,939.951C1736.08,940.226 1725.23,922.878 1723.73,907.958C1723.02,900.887 1722.84,894.75 1728.05,889.262C1730.85,886.316 1734.3,884.059 1738.14,882.737C1753.79,877.349 1767.99,883.762 1777.02,896.976C1783.61,906.621 1788.44,918.085 1801.3,919.546C1808.77,920.394 1813.05,913.721 1813.94,907.19C1815.53,895.528 1813.62,882.739 1804.94,874.206C1803.14,872.435 1801.06,870.968 1798.79,869.865C1782.63,862.024 1774.25,881.383 1771.26,893.508C1770.4,896.985 1769.61,900.479 1768.73,903.949C1767.78,907.65 1766.69,911.235 1765.52,914.869C1764.01,919.59 1762.13,923.676 1759.63,927.988C1754.8,936.317 1740.86,943.49 1731.8,937.026C1724.23,931.622 1729.84,925.284 1736.58,924.5C1746.5,923.347 1756.73,924.053 1766.59,925.228C1769.64,925.592 1778.53,927.937 1781.95,925.109C1784.25,923.213 1783.49,918.058 1783.31,915.695C1782.7,907.883 1771.23,897.475 1762.99,901.424C1753.46,905.987 1748.55,918.574 1744.87,927.537C1743.96,929.738 1741.87,937.387 1737.94,936.473C1733.41,935.418 1730.03,928.502 1727.98,924.974C1725.61,920.911 1723.87,916.839 1722.34,912.412C1721.28,909.358 1720.36,906.798 1719.69,903.636C1718.95,900.1 1718.23,894.999 1719.42,891.448C1721.78,884.44 1730.08,879.024 1734.05,872.819C1737.03,868.167 1739.1,863.185 1739.63,857.665C1739.78,856.198 1740.29,853.312 1739.91,851.624C1739.68,850.628 1737.29,848.498 1737.85,849.356C1741.59,855.14 1749.91,857.747 1755.99,859.926C1766.93,863.852 1778.18,865.931 1789.45,868.569C1794.07,869.65 1805.42,870.957 1806.97,877.135C1809.46,887.009 1790.63,889.431 1784.86,890.247C1766.86,892.792 1740.49,892.244 1732.78,871.313C1730.51,865.167 1736.59,865.7 1741.56,866.103C1751.44,866.906 1759.58,871.108 1767.04,877.665C1768.05,878.55 1773.91,882.782 1773.67,884.968C1773.54,886.149 1769.62,885.451 1768.79,885.326C1765.4,884.812 1761.62,882.369 1758.92,880.553C1751.25,875.389 1745.23,868.99 1740.21,861.287C1739.02,859.458 1734.53,854.668 1735.11,852.033C1735.38,850.774 1744.51,851.008 1744.78,851.008C1753.02,851.008 1761.15,852.852 1769.34,853.571C1772.46,853.844 1776.54,854.531 1779.54,853.294C1781.54,852.468 1781.55,848.911 1782.09,847.22C1782.49,845.999 1782.09,849.788 1782.09,851.071C1782.09,856.533 1781.79,862.108 1782.09,867.569C1782.81,880.408 1786.09,893.116 1788.42,905.719C1789.42,911.116 1790.07,922.011 1795.57,925.443C1799.24,927.731 1803.71,928.198 1807.78,929.313C1809.43,929.765 1812.54,930.679 1812.6,932.895C1812.64,934.451 1806.58,934.238 1806.42,934.239C1799.32,934.271 1792.19,932.63 1785.58,930.106C1772.79,925.221 1752.41,920.502 1745.58,906.373C1742.99,901.021 1742.79,894.806 1742.79,889C1742.79,888.322 1742.38,890.31 1742,890.871C1740.97,892.38 1740.39,892.935 1738.97,894.385C1735.79,897.635 1732.42,900.72 1728.96,903.667C1720.82,910.591 1702.48,922.613 1698.19,905.568C1696.86,900.313 1696.99,895.349 1696.86,889.965C1696.76,886.01 1696.68,882.835 1697.55,878.913C1702.03,858.689 1730.02,865.715 1742.67,871.79C1745.35,873.08 1747.88,874.674 1750.54,876.028C1753.14,877.353 1756.83,878.98 1759.54,880.042C1764.38,881.941 1769.97,883.906 1775.3,883.572C1781.35,883.191 1786.43,876.153 1786.43,870.4" style="fill:rgb(206,94,94);fill-opacity:0.27;stroke:black;stroke-opacity:0.46;stroke-width:2.4px;"/>
            </g>
        </g>
    </g>
</svg>
