<?xml version="1.0" encoding="UTF-8" standalone="no"?><!DOCTYPE svg PUBLIC "-//W3C//DTD SVG 1.1//EN" "http://www.w3.org/Graphics/SVG/1.1/DTD/svg11.dtd"><svg width="100%" height="100%" viewBox="0 0 1801 1801" version="1.1" xmlns="http://www.w3.org/2000/svg" xmlns:xlink="http://www.w3.org/1999/xlink" xml:space="preserve" xmlns:serif="http://www.serif.com/" style="fill-rule:evenodd;clip-rule:evenodd;stroke-linecap:round;stroke-linejoin:round;stroke-miterlimit:1.5;"><rect id="Artboard2" x="0.108" y="0.21" width="1800" height="1800" style="fill:none;"/><circle id="pcolor" cx="900.108" cy="909.828" r="448.476" style="fill:#2985c3;"/><path d="M213.065,909.828c4.045,-31.258 3.349,-62.821 8.475,-94.079c4.563,-27.827 11.733,-81.398 24.929,-130.893" style="fill:none;stroke:#cbcbcb;stroke-width:10.59px;"/><path d="M228.198,952.756c27.674,-40.312 16.219,-99.233 18.639,-145.579c0.767,-14.692 3.463,-49.986 -7.844,-62.86" style="fill:none;stroke:#cbcbcb;stroke-width:10.59px;"/><path d="M212.364,565.404c6.441,-9.75 11.796,-21.094 21.663,-27.907c14.125,-9.752 17.98,4.836 14.671,17.407c-1.061,4.032 -2.538,7.993 -4.136,11.84" style="fill:none;stroke:#cbcbcb;stroke-width:10.59px;"/><path d="M270.779,492.511c9.269,13.161 42.53,6.997 56.436,0.464" style="fill:none;stroke:#cbcbcb;stroke-width:10.59px;"/><path d="M226.445,955.258c9.931,5.278 24.047,13.249 27.886,24.76c4.285,12.849 2.713,30.269 -14.891,29.261c-14.899,-0.853 -26.857,-21.598 -33.192,-33.428l-0.691,80.14" style="fill:none;stroke:#cbcbcb;stroke-width:10.59px;"/><path d="M189.118,1120.82c-16.448,-40.408 4.062,-95.132 -15.695,-134.014c-12.343,-24.291 -20.237,-53.353 -26.224,-80.104c-22.102,-98.756 15.142,-213.023 48.939,-304.64" style="fill:none;stroke:#cbcbcb;stroke-width:10.59px;"/><path d="M232.588,606.644c-16.833,43.012 -27.746,98.092 -40.574,141.88" style="fill:none;stroke:#cbcbcb;stroke-width:10.59px;"/><path d="M255.777,648.386c0.882,-6.563 6.496,-20.624 6.887,-27.206" style="fill:none;stroke:#cbcbcb;stroke-width:10.59px;"/><path d="M264.823,579.818c3.02,-11.582 10.295,-31.837 -5.548,-37.923" style="fill:none;stroke:#cbcbcb;stroke-width:10.59px;"/><path d="M278.851,695.291c-10.104,-4.224 -20.197,-8.351 -30.098,-13.025c-5.024,-2.372 -10.08,-4.72 -14.869,-7.551c-10.537,-6.228 -28.54,-17.807 -7.933,-23.467c3.402,-0.934 6.795,-1.518 10.327,-1.628c15.04,-0.473 31.668,3.975 45.026,10.968c17.702,9.266 23.244,34.89 -2.453,34.703Z" style="fill:none;stroke:#cbcbcb;stroke-width:10.59px;"/><path d="M263.231,646.84c12.699,-12.733 2.883,-25.459 -8.951,-34.388c-17.947,-13.541 -39.187,-29.534 -58.026,-10.376" style="fill:none;stroke:#cbcbcb;stroke-width:10.59px;"/><path d="M283.067,661.138c21.993,-23.939 6.374,-59.659 -18.167,-77.008c-19.797,-13.996 -46.342,-17.918 -70.214,-19.025" style="fill:none;stroke:#cbcbcb;stroke-width:10.59px;"/><path d="M142.705,578.773c-6.128,-3.613 -16.308,-11.533 -24.485,-9.474c-15.181,3.821 -20.78,28.777 -9.886,39.599c8.637,8.58 22.222,10.366 33.564,8.07c4.095,-0.829 7.901,-3.994 12.177,-3.624c9.686,0.84 17.39,9.688 25.592,14.305" style="fill:none;stroke:#cbcbcb;stroke-width:10.59px;"/><path d="M142.464,577.852c9.736,-25.921 25.114,-49.381 41.202,-71.729c25.961,-36.063 50.69,-65.852 99.031,-64.123c40.579,1.451 82.093,28.185 111.312,54.531c5.315,4.792 30.042,27.218 18.904,36.558c-12.661,10.617 -32.824,-6.278 -42.547,-13.683c-26.42,-20.119 -64.444,-54.99 -97.45,-28.797" style="fill:none;stroke:#cbcbcb;stroke-width:10.59px;"/><path d="M262.754,535.592c30.222,-2.436 68.787,-10.466 96.433,-23.091" style="fill:none;stroke:#cbcbcb;stroke-width:10.59px;"/><path d="M392.95,492.163c11.582,-8.624 33.834,-23.172 7.71,-30.188c-2.251,-0.604 -4.706,-0.879 -7.031,-0.603c-6.253,0.741 -23.664,7.804 -29.623,9.786" style="fill:none;stroke:#cbcbcb;stroke-width:10.59px;"/><path d="M1049.03,362.894c-31.673,6.721 -106.807,10.506 -103.26,31.947c1.582,9.56 109.598,2.411 132.793,0.097c19.082,-1.903 147.5,-12.893 184.61,-39.699c34.309,-24.785 34.396,-99.3 38.048,-121.141c4.146,-24.802 21.631,-102.259 10.383,-107.28c-18.938,-8.454 -35.908,96.002 -45.577,120.984c-31.86,82.319 -82.311,56.494 -81.873,52.596c1.357,-12.098 27.32,-15.235 40.37,-29.58c9.825,-10.8 13.03,-39.549 15.073,-53.433c2.922,-19.858 4.275,-39.808 4.332,-59.87c0.036,-12.6 -3.961,-58.854 -10.426,-59.949c-12.718,-2.153 -14.8,82.479 -16.966,104.56c-1.053,10.73 -6.908,33.51 -13.877,41.973c-6.332,7.689 -13.336,11.412 -29.34,18.752c-29.328,13.451 -102.342,39.674 -137.912,43.103" style="fill:none;stroke:#cbcbcb;stroke-width:10.59px;"/><path d="M1035.02,306.131c-26.709,-0.419 -53.148,0.851 -79.657,4.04c-4.643,0.558 -25.284,2.262 -19.413,11.963c5.124,8.464 20.449,8.682 28.931,9.074c24.33,1.124 48.761,-3.657 73.014,-2.226" style="fill:none;stroke:#cbcbcb;stroke-width:10.59px;"/><path d="M1077.85,350.957c3.075,-10.057 3.584,-24.1 -1.814,-33.549c-3.881,-6.792 -13.523,-11.067 -20.761,-6.756c-9.939,5.919 -12.728,16.648 -12.146,27.701c0.458,8.717 3.013,17.634 5.809,24.552" style="fill:none;stroke:#cbcbcb;stroke-width:10.59px;"/><path d="M665.563,299.816c-16.934,-0.59 -85.239,-10.527 -88.02,-4.318c-3.228,7.209 -9.57,32.623 -10.237,40.286c-1.818,20.895 -2.826,41.764 -4.476,62.637c-0.502,6.347 -1.158,28.262 -11.82,27.95c-4.243,-0.125 -5.827,-14.865 -6.263,-17.302c-3.534,-19.751 -7.432,-39.473 -7.753,-59.616c-0.186,-11.661 -0.093,-24.065 1.703,-35.581c1.208,-7.746 2.641,-15.494 5.679,-22.761c16.091,-38.485 38.083,-40.385 78.18,-42.506c-0,-0 145.257,17.966 216.795,31.876c16.632,3.234 34.343,6.69 50.546,11.72c3.582,1.112 14.47,3.315 15.901,7.891c2.026,6.479 -15.474,8.612 -18.844,8.705c-19.793,0.546 -39.774,-4.798 -59.29,-7.508c-5.644,-0.784 -11.293,-1.437 -16.926,-2.311c-1.925,-0.299 -3.86,-0.515 -5.787,-0.8c-0.845,-0.124 -3.318,-0.689 -2.538,-0.34c10.152,4.541 43.289,14.811 33.986,32.681c-5.082,9.761 -19.585,11.328 -29.313,10.14c-3.578,-0.438 -7.068,-1.712 -10.261,-3.353c-1.436,-0.738 -5.369,-3.453 -4.28,-2.263c9.385,10.26 25.79,14.972 38.487,19.279c20.303,6.889 40.357,14.561 60.553,21.742c10.96,3.897 21.843,8.309 32.445,13.121c0.669,0.304 13.058,5.464 10.537,6.969c-6.947,4.148 -15.763,3.504 -23.48,2.353c-17.52,-2.614 -34.455,-7.365 -51.688,-11.304c-47.896,-10.95 -154.28,-37.334 -202.179,-46.541c-28.038,-5.389 -58.952,-10.803 -85.213,-8.698" style="fill:none;stroke:#cbcbcb;stroke-width:10.59px;"/><path d="M538.143,376.508c-3.321,18.898 -6.192,32.125 -9.203,52.453c-0.496,3.351 -3.635,13.402 -8.377,9.146c-7.763,-6.967 -6.596,-21.209 -6.653,-30.625c-0.169,-27.684 8.628,-80.33 24.092,-103.917" style="fill:none;stroke:#cbcbcb;stroke-width:10.59px;"/><path d="M1490.43,548.092c51.266,78.551 2.412,109.291 -17.195,115.169c-21.391,6.412 -53.473,-6.493 -73.515,-14.173c-14.021,-5.373 -28.003,-9.984 -40.591,-18.365c-3.208,-2.135 -9.818,-5.361 -10.33,-9.366c-0.815,-6.368 9.428,-7.586 13.737,-7.313c12.87,0.816 26.139,6.787 38.162,11.107c7.264,2.61 14.627,4.598 22.105,6.471c8.406,2.105 19.48,5.776 28.002,1.999c6.894,-3.055 4.224,-17.751 3.907,-24.194c-0.802,-16.257 -8.62,-31.84 -13.82,-47.083" style="fill:none;stroke:#cbcbcb;stroke-width:10.59px;"/><path d="M1408.71,558.558c5.099,23.11 11.561,46.37 18.164,69.116" style="fill:none;stroke:#cbcbcb;stroke-width:10.59px;"/><path d="M1433.05,664.4c-31.419,10.044 -61.924,14.368 -94.87,13.599c-7.609,-0.178 -15.322,-0.933 -22.727,-2.739c-0.837,-0.204 -6.399,-1.556 -6.242,-2.119c2.555,-9.153 13.061,-13.843 21.554,-15.627c18.493,-3.885 38.096,-1.056 56.175,-7.312" style="fill:none;stroke:#cbcbcb;stroke-width:10.59px;"/><path d="M1357.91,435.913c-34.812,-3.521 -20.348,-49.382 9.369,-30.841c6.233,3.888 10.502,9.378 15.114,14.899" style="fill:none;stroke:#cbcbcb;stroke-width:10.59px;"/><path d="M1332.67,416.723c-18.024,-18.224 -42.833,-49.277 -63.356,-64.802" style="fill:none;stroke:#cbcbcb;stroke-width:10.59px;"/><path d="M1251.83,359.358c32.131,41.647 73.536,111.923 108.852,151.043" style="fill:none;stroke:#cbcbcb;stroke-width:10.59px;"/><path d="M1386.66,422.174c29.401,2.46 52.465,27.013 67.044,50.311" style="fill:none;stroke:#cbcbcb;stroke-width:10.59px;"/><path d="M1436.82,445.851c1.566,-17.278 17.359,-42.8 35.858,-23.249c5.315,5.617 5.728,13.703 4.791,20.975c-0.225,1.751 -2.782,8.052 -1.957,9.302c4.938,7.483 14.611,9.657 20.852,15.711c8.458,8.206 14.312,19.43 19.952,29.625c13.515,24.431 27.45,50.159 35.074,77.156c5.884,20.838 5.727,42.7 10.404,63.738c4.798,21.585 12.621,42.47 21.576,62.637c8.816,19.852 23.012,37.784 29.073,58.655c1.193,4.11 5.836,16.345 3.159,20.789c-6.079,10.093 -13.327,-0.122 -16.275,-4.1c-18.662,-25.18 -36.932,-44.334 -47.59,-73.468c-7.025,-19.205 -23.351,-58.627 -39.397,-73.673" style="fill:none;stroke:#cbcbcb;stroke-width:10.59px;"/><path d="M1475.12,663.907c1.714,22.607 7.136,33.646 16.906,57.677c4.78,11.759 41.18,90.351 43.661,90.807c3.309,0.608 6.173,-5.547 6.807,-7.975c2.831,-10.83 0.267,-22.623 -1.64,-33.365c-6.408,-36.106 -25.793,-68.071 -28.359,-104.736c-1.15,-16.435 2.647,-20.594 -2.138,-37.331" style="fill:none;stroke:#cbcbcb;stroke-width:10.59px;"/><path d="M1420.46,464.445c4.298,7.023 13.701,23.589 18.182,30.496" style="fill:none;stroke:#cbcbcb;stroke-width:10.59px;"/><path d="M1463.25,525.288c8.289,20.83 10.726,37.96 12.705,60.361c0.818,9.255 0.766,18.835 2.735,27.953c0.053,0.245 1.463,7.567 2.271,7.511c8.755,-0.607 11.129,-23.979 11.986,-30.488c3.888,-29.505 -5.353,-60.598 -18.896,-86.596" style="fill:none;stroke:#cbcbcb;stroke-width:10.59px;"/><path d="M1361.91,512.086c9.604,-3.48 26.607,-16.505 37.666,-12.136c4.155,1.642 1.92,9.509 0.996,12.379c-3.606,11.208 -13.559,19.333 -24.719,22.452c-22.026,6.158 -50.395,-17.009 -30.546,-38.247" style="fill:none;stroke:#cbcbcb;stroke-width:10.59px;"/><path d="M1361.73,536.201c-11.206,25.975 27.11,22.996 41.534,19.751c28.006,-6.301 58.581,-26.157 70.424,-52.097" style="fill:none;stroke:#cbcbcb;stroke-width:10.59px;"/><path d="M1456.4,473.802c-10.215,20.992 -37.557,44.901 -60.907,51.904" style="fill:none;stroke:#cbcbcb;stroke-width:10.59px;"/><path d="M1465.55,667.097c-0,0 17.885,159.056 9.569,160.241c-8.315,1.186 -35.367,-120.099 -37.65,-154.97" style="fill:none;stroke:#cbcbcb;stroke-width:10.59px;"/><path d="M400.694,460.334c5.754,-5.614 44.537,-34.831 59.809,-51.529c33.116,-36.213 12.163,-68.759 -16.005,-94.376c-9.357,-8.509 -20.131,-16.374 -25.665,-28.077c-1.361,-2.877 6.306,0.898 9.424,1.539c6.505,1.337 12.881,3.199 19.353,4.679c21.743,4.975 45.905,14.185 68.3,14.164c5.294,-0.005 19.39,-1.673 20.219,-9.261c0.181,-1.659 -7.557,-4.366 -8.954,-4.984c-10.103,-4.471 -20.904,-7.07 -31.261,-10.816c-45.03,-16.286 -81.06,-29.094 -129.524,-23.823c0,0 -15.298,-33.016 -39.338,-14.521c-8.69,6.685 -5.771,18.457 1.563,26.292c2.226,2.379 4.763,4.452 7.519,6.192c1.865,1.177 7.785,2.838 5.66,3.426c-1.61,0.446 -8.942,0.021 -9.954,-0.031c-43.67,-2.248 -85.921,-6.482 -129.831,-3.08c-4.374,0.338 -36.27,2.537 -35.792,10.928c0.564,9.894 19.721,11.524 26.492,12.301c28.695,3.296 57.492,-0.181 86.21,1.865c48.628,3.464 83.027,35.373 112.692,71.45c-0,-0 -45.949,33.474 -33.905,66.929c1.898,5.272 12.06,22.097 14.778,27.006" style="fill:none;stroke:#cbcbcb;stroke-width:10.59px;"/><path d="M413.331,398.819c-13.081,18.557 -43.201,35.515 -36.028,60.665" style="fill:none;stroke:#cbcbcb;stroke-width:10.59px;"/><path d="M407.192,486.366c1.67,2.613 9.747,11.354 7.889,15.675" style="fill:none;stroke:#cbcbcb;stroke-width:10.59px;"/><path d="M250.031,1199.26c-13.458,11.592 -53.78,22.124 -46.553,-9.573c5.995,-26.297 34.534,-17.005 52.479,-24.093c15.207,-6.007 19.437,-24.348 20.486,-39.003c1.842,-25.734 -13.227,-47.145 -30.118,-64.869c-5.259,-5.518 -21.172,-17.506 -14.921,-26.715c10.645,-15.682 34.754,12.715 40.271,20.281c1.868,2.56 3.832,5.221 5.546,7.915c21.018,33.035 37.119,71.582 21.189,107.702c-0,0 21.718,28.978 33.144,47.629c14.742,24.063 20.544,51.63 31.824,77.162" style="fill:none;stroke:#cbcbcb;stroke-width:10.59px;"/><path d="M225.826,1166.8c-19.133,-38.767 -17.718,-76.011 7.511,-110.809" style="fill:none;stroke:#cbcbcb;stroke-width:10.59px;"/><path d="M230.585,1034.7c-45.869,29.977 -52.243,100.318 -26.229,146.427" style="fill:none;stroke:#cbcbcb;stroke-width:10.59px;"/><path d="M226.719,1212.92c8.622,22.402 17.568,44.587 25.916,67.096" style="fill:none;stroke:#cbcbcb;stroke-width:10.59px;"/><path d="M220.454,1372.14c-1.446,-38.267 9.433,-66.365 27.081,-98.28" style="fill:none;stroke:#cbcbcb;stroke-width:10.59px;"/><path d="M331.916,1209.49c6.836,-6.126 29.26,-19.147 29.569,-29.847c0.161,-5.588 -7.861,-5.382 -11.619,-4.598c-10.245,2.137 -19.706,8.343 -28.497,13.765" style="fill:none;stroke:#cbcbcb;stroke-width:10.59px;"/><path d="M362.846,1353.38c4.943,53.512 -45.848,104.949 -79.272,140.031c-11.419,11.985 -24.025,23.962 -37.523,33.482c-2.591,1.827 -11.918,10.794 -14.386,4.506c-5.258,-13.398 11.156,-30.547 18.737,-40.384c21.165,-27.465 53.611,-52.395 60.432,-88.192" style="fill:none;stroke:#cbcbcb;stroke-width:10.59px;"/><path d="M261.688,1441.42c-15.063,18.791 -27.595,34.283 -45.343,50.681c-1.55,1.432 -17.426,16.174 -21.638,14.137c-6.619,-3.199 -0.53,-17.402 1.483,-21.504c7.65,-15.588 19.46,-29.964 29.538,-44.208" style="fill:none;stroke:#cbcbcb;stroke-width:10.59px;"/><path d="M299.211,1321.53c13.463,7.356 36.356,-0.407 48.816,-6.448c45.733,-22.171 60.252,-65.583 79.8,-108.883c5.832,-12.917 14.04,-25.703 23.467,-36.329c3.235,-3.646 9.875,-9.212 14.946,-5.341c5.651,4.313 0.898,21.347 -0.227,26.383c-5.743,25.722 -19.278,51.146 -31.224,74.432c-14.299,27.874 -32.002,55.019 -55.686,75.882c-15.396,13.563 -33.766,22.995 -49.377,36.153c-16.145,13.61 -29.688,30.638 -44.897,45.27c-7.884,7.585 -16.48,16.334 -27.592,18.683c-14.922,3.154 -54.28,-12.268 -54.28,-12.268c-6.54,4.115 -15.55,9.426 -23.453,9.936c-14.326,0.924 -28.869,-15.617 -23.674,-29.501c4.294,-11.472 18.13,-17.294 29.17,-18.842c-6.125,-3.925 18.035,-107.564 51.778,-145.097" style="fill:none;stroke:#cbcbcb;stroke-width:10.59px;"/><path d="M259.678,1417.89c26.937,-35.734 38.68,-84.756 38.78,-129.033c0.031,-13.557 -0.883,-26.836 -7.057,-39.105c-0.816,-1.621 -4.769,-10.508 -8.15,-8.684c-12.681,6.84 -10.89,27.993 -11.365,39.807c-1.416,35.244 -6.448,68.275 -18.75,101.479" style="fill:none;stroke:#cbcbcb;stroke-width:10.59px;"/><path d="M221.543,1369.59c11.073,-25.521 22.659,-56.822 36.64,-81.091" style="fill:none;stroke:#cbcbcb;stroke-width:10.59px;"/><path d="M250.71,1274.6c4.864,7.012 14.727,31.028 17.753,39.053" style="fill:none;stroke:#cbcbcb;stroke-width:10.59px;"/><path d="M1116.81,1553.66c-31.519,-0.113 -62.748,4.514 -94.402,3.328c-28.178,-1.057 -82.226,-1.488 -132.98,-8.406" style="fill:none;stroke:#cbcbcb;stroke-width:10.59px;"/><path d="M1157.51,1533.29c-43.449,-22.429 -100.481,-3.714 -146.767,-0.334c-14.672,1.072 -50.027,2.8 -61.39,15.625" style="fill:none;stroke:#cbcbcb;stroke-width:10.59px;"/><path d="M775.16,1597.32c-10.477,-5.174 -22.4,-9.072 -30.391,-18.012c-11.438,-12.798 2.556,-18.443 15.441,-16.728c4.132,0.549 8.247,1.521 12.263,2.627" style="fill:none;stroke:#cbcbcb;stroke-width:10.59px;"/><path d="M695.55,1548.46c11.902,-10.838 1.637,-43.071 -6.58,-56.053" style="fill:none;stroke:#cbcbcb;stroke-width:10.59px;"/><path d="M1160.21,1534.72c3.998,-10.511 10.146,-25.512 21.089,-30.756c12.214,-5.855 29.693,-6.469 30.89,11.124c1.012,14.889 -18.08,29.341 -29.026,37.102" style="fill:none;stroke:#cbcbcb;stroke-width:10.59px;"/><path d="M1307.73,1507.39c-38.04,21.36 -73.487,51.551 -109.6,76.004c-22.562,15.278 -50.413,26.735 -76.208,36.012c-95.227,34.249 -213.248,11.551 -308.365,-10.555" style="fill:none;stroke:#cbcbcb;stroke-width:10.59px;"/><path d="M813.556,1572.11c44.775,11.336 100.787,15.293 145.833,22.558" style="fill:none;stroke:#cbcbcb;stroke-width:10.59px;"/><path d="M852.079,1543.89c-6.622,-0.056 -21.274,-3.872 -27.853,-3.438" style="fill:none;stroke:#cbcbcb;stroke-width:10.59px;"/><path d="M782.918,1543.47c-11.868,-1.551 -32.873,-6.243 -36.935,10.236" style="fill:none;stroke:#cbcbcb;stroke-width:10.59px;"/><path d="M895.739,1515.15c-2.931,10.552 -5.766,21.081 -9.169,31.488c-1.727,5.281 -3.426,10.59 -5.637,15.695c-4.864,11.231 -14.107,30.538 -22.294,10.798c-1.351,-3.259 -2.353,-6.553 -2.904,-10.043c-2.345,-14.864 -0.006,-31.916 5.266,-46.043c6.986,-18.72 31.718,-27.414 34.738,-1.895Z" style="fill:none;stroke:#cbcbcb;stroke-width:10.59px;"/><path d="M849.615,1536.69c-14.218,-11.011 -25.62,0.316 -33.003,13.171c-11.196,19.496 -24.414,42.565 -3.056,58.867" style="fill:none;stroke:#cbcbcb;stroke-width:10.59px;"/><path d="M861.327,1515.23c-26.496,-18.836 -59.988,1.118 -74.141,27.63c-11.417,21.389 -11.997,48.216 -10.117,72.04" style="fill:none;stroke:#cbcbcb;stroke-width:10.59px;"/><path d="M797.115,1664.77c-2.821,6.53 -9.409,17.619 -6.346,25.475c5.685,14.586 31.144,17.028 40.523,4.87c7.435,-9.64 7.513,-23.342 3.82,-34.309c-1.334,-3.96 -4.949,-7.341 -5.115,-11.63c-0.375,-9.716 7.443,-18.463 11.001,-27.176" style="fill:none;stroke:#cbcbcb;stroke-width:10.59px;"/><path d="M796.231,1665.12c-26.934,-6.427 -52.128,-18.758 -76.309,-31.933c-39.019,-21.26 -71.66,-42.079 -75.975,-90.258c-3.623,-40.443 17.724,-84.968 40.219,-117.246c4.091,-5.87 23.258,-33.202 33.915,-23.316c12.113,11.237 -2.135,33.35 -8.269,43.922c-16.666,28.723 -46.521,70.8 -16.416,100.281" style="fill:none;stroke:#cbcbcb;stroke-width:10.59px;"/><path d="M739.296,1551.04c-6.188,-29.682 -18.966,-66.945 -34.941,-92.799" style="fill:none;stroke:#cbcbcb;stroke-width:10.59px;"/><path d="M679.965,1427.28c-10.002,-10.417 -27.212,-30.68 -30.914,-3.885c-0.319,2.309 -0.285,4.779 0.278,7.052c1.515,6.111 10.695,22.505 13.405,28.17" style="fill:none;stroke:#cbcbcb;stroke-width:10.59px;"/><path d="M1600.36,960.724c-17.232,-5.166 -29.697,-31.06 -9.359,-41.46c11.84,-6.055 24.995,-1.488 32.817,8.352c2.495,3.14 4.479,6.543 6.38,10.061c0.321,0.593 2.706,5.396 2.788,5.365c3.009,-1.134 5.473,-5.239 7.432,-7.607c15.866,-19.173 24.313,-48.538 36.117,-70.624c2.779,-5.198 10.675,-25.962 18.975,-16.925c8.114,8.833 -9.914,50.667 -18.319,69.829c-10.798,24.616 -15.042,55.369 -20.956,81.79c-10.514,46.969 -9.147,118.453 -25.998,137.478c-16.851,19.025 -60.919,-9.978 -75.108,-23.328" style="fill:none;stroke:#cbcbcb;stroke-width:10.59px;"/><path d="M1515.37,1032.73c-0.596,38.543 2.342,76.834 11.054,114.439c1.669,7.202 4.578,28.401 13.556,30.902c8.567,2.385 11.265,-18.456 11.93,-23.124c3.484,-24.473 3.05,-51.282 1.268,-75.965" style="fill:none;stroke:#cbcbcb;stroke-width:10.59px;"/><path d="M1515.79,1032.01c10.755,-7.951 23.246,0.66 33.462,6.648c22.666,13.289 37.47,36.771 55.22,55.412" style="fill:none;stroke:#cbcbcb;stroke-width:10.59px;"/><path d="M1513.87,1052.68c-7.622,0.787 -19.357,-0.552 -25.66,4.998c-18.8,16.553 -11.1,57.437 -11.001,79.035c0.052,11.178 -0.402,22.66 1.156,33.761c0.329,2.343 0.245,9.27 3.01,10.336c8.476,3.269 13.834,-14.212 15.153,-19.314c4.183,-16.183 3.517,-33.064 4.455,-49.599c0.432,-7.599 -0.475,-16.009 6.472,-20.802" style="fill:none;stroke:#cbcbcb;stroke-width:10.59px;"/><path d="M1562.41,1044.3c1.193,-20.47 4.362,-42.267 -2.065,-62.25c-9.408,-29.246 -35.269,-55.434 -54.242,-79.037c-12.06,-15.003 -25.617,-29.098 -36.879,-44.704c-3.231,-4.476 -9.739,-13.573 -7.156,-19.745c4.657,-11.13 28.744,10.41 32.411,14c29.298,28.681 59.387,63.695 88.698,92.511" style="fill:none;stroke:#cbcbcb;stroke-width:10.59px;"/><path d="M1423.36,1471.4c-48.09,80.535 -97.15,50.123 -111.034,35.084c-15.148,-16.409 -17.629,-50.9 -19.522,-72.279c-1.325,-14.957 -3.316,-29.544 -1.309,-44.533c0.512,-3.819 0.51,-11.174 3.884,-13.392c5.364,-3.526 10.954,5.143 12.599,9.135c4.913,11.923 5.371,26.466 6.764,39.166c0.842,7.672 2.287,15.161 3.885,22.702c1.797,8.477 3.358,20.04 10.491,26.04c5.77,4.855 17.805,-3.993 23.454,-7.106c14.257,-7.854 24.829,-21.717 36.245,-33.078" style="fill:none;stroke:#cbcbcb;stroke-width:10.59px;"/><path d="M1378.1,1402.57c-18.53,14.723 -36.595,30.736 -54.137,46.649" style="fill:none;stroke:#cbcbcb;stroke-width:10.59px;"/><path d="M1293.67,1470.88c-22.812,-23.825 -40.083,-49.339 -53.849,-79.282c-3.179,-6.915 -5.884,-14.177 -7.511,-21.623c-0.184,-0.842 -1.409,-6.433 -0.834,-6.539c9.346,-1.721 18.17,5.662 23.5,12.511c11.605,14.913 17.664,33.769 31.219,47.27" style="fill:none;stroke:#cbcbcb;stroke-width:10.59px;"/><path d="M1466.02,1303.1c-12.111,-32.826 35.445,-39.952 31.824,-5.113c-0.759,7.307 -3.819,13.552 -6.756,20.119" style="fill:none;stroke:#cbcbcb;stroke-width:10.59px;"/><path d="M1472.19,1272c8.467,-24.193 20.676,-49.593 25.622,-74.846c1.16,-5.924 4.101,-20.13 -3.256,-23.407" style="fill:none;stroke:#cbcbcb;stroke-width:10.59px;"/><path d="M1479.53,1184.13c-23.326,47.147 -59.571,105.25 -79.227,154.15" style="fill:none;stroke:#cbcbcb;stroke-width:10.59px;"/><path d="M1490.98,1322.91c10.69,27.499 -1.253,58.998 -15.792,82.322" style="fill:none;stroke:#cbcbcb;stroke-width:10.59px;"/><path d="M1491.71,1378.37c16.212,-6.174 46.075,-3.181 36.625,22.02c-2.716,7.241 -9.8,11.16 -16.746,13.509c-1.673,0.566 -8.457,1.033 -9.218,2.323c-4.557,7.721 -2.266,17.367 -4.968,25.631c-3.662,11.201 -11.179,21.386 -17.866,30.928c-16.022,22.865 -33.027,46.676 -53.941,65.372c-16.143,14.431 -35.857,23.883 -52.71,37.317c-17.29,13.782 -32.625,29.976 -46.817,46.872c-13.971,16.633 -23.855,37.257 -39.95,51.862c-3.169,2.875 -12.127,12.416 -17.294,11.961c-11.737,-1.034 -5.739,-12.03 -3.458,-16.424c14.438,-27.819 23.633,-52.64 45.136,-75c14.175,-14.74 42.435,-46.709 48.915,-67.729" style="fill:none;stroke:#cbcbcb;stroke-width:10.59px;"/><path d="M1312.57,1508.47c-19.563,11.46 -27.103,21.175 -44.41,40.499c-8.469,9.456 -63.12,76.649 -62.441,79.079c0.906,3.24 7.693,3.112 10.153,2.617c10.974,-2.208 20.446,-9.687 29.263,-16.114c29.632,-21.601 49.85,-53.046 81.671,-71.44c14.263,-8.245 19.666,-6.658 32.607,-18.301" style="fill:none;stroke:#cbcbcb;stroke-width:10.59px;"/><path d="M1467.82,1371.83c-4.426,6.943 -15.185,22.661 -19.426,29.719" style="fill:none;stroke:#cbcbcb;stroke-width:10.59px;"/><path d="M1431.92,1436.97c-15.08,16.588 -29.405,26.294 -48.664,37.902c-7.958,4.796 -16.59,8.953 -23.919,14.723c-0.197,0.154 -6.158,4.635 -5.754,5.336c4.389,7.601 26.431,-0.521 32.656,-2.606c28.22,-9.454 52.105,-31.401 69.523,-54.978" style="fill:none;stroke:#cbcbcb;stroke-width:10.59px;"/><path d="M1399.33,1340.12c7.341,7.103 26.506,16.667 27.432,28.521c0.348,4.454 -7.702,5.898 -10.686,6.327c-11.653,1.677 -23.322,-3.701 -31.022,-12.36c-15.198,-17.091 -6.828,-52.749 20.966,-44.232" style="fill:none;stroke:#cbcbcb;stroke-width:10.59px;"/><path d="M1377.58,1350.54c-28.258,1.329 -8.769,34.452 0.476,45.989c17.951,22.401 49.209,41.163 77.716,40.423" style="fill:none;stroke:#cbcbcb;stroke-width:10.59px;"/><path d="M1475.19,1408.23c-23.346,0.032 -56.827,-14.046 -73.365,-31.955" style="fill:none;stroke:#cbcbcb;stroke-width:10.59px;"/><path d="M1209.46,1526.41c29.017,-19.518 56.438,-25.285 86.771,-42.638" style="fill:none;stroke:#cbcbcb;stroke-width:10.59px;"/><path d="M647.418,1423.57c-6.288,-5.008 -40.114,-39.844 -58.588,-52.913c-40.06,-28.341 -69.739,-3.491 -91.642,27.652c-7.275,10.345 -31.602,48.895 -31.355,45.722c0.516,-6.621 -102.902,-53.917 -104.343,-47.436" style="fill:none;stroke:#cbcbcb;stroke-width:10.59px;"/><path d="M362.657,1420.06c32.753,9.287 80.925,32.465 88.138,62.807c0,-0 -30.849,19.298 -9.5,40.843c7.716,7.787 19.032,3.423 25.891,-4.831c2.083,-2.506 3.823,-5.282 5.206,-8.233c0.935,-1.997 1.844,-8.078 2.693,-6.043c0.643,1.542 1.136,8.87 1.211,9.881c3.217,43.608 4.287,86.058 13.139,129.2c0.882,4.298 7.042,35.67 15.308,34.149c9.746,-1.793 8.974,-21.004 8.901,-27.82c-0.31,-28.881 -7.352,-57.019 -8.905,-85.769c-2.628,-48.68 24.74,-86.791 56.835,-120.724c-0,-0 38.944,41.414 70.635,25.291c4.995,-2.541 20.421,-14.723 24.952,-18.031" style="fill:none;stroke:#cbcbcb;stroke-width:10.59px;"/><path d="M584.807,1418.7c20.044,10.664 40.627,38.433 64.686,28.179" style="fill:none;stroke:#cbcbcb;stroke-width:10.59px;"/><path d="M672.436,1413.88c2.384,-1.983 10.049,-11.087 14.569,-9.783" style="fill:none;stroke:#cbcbcb;stroke-width:10.59px;"/><path d="M936.189,539.531c5.617,-19.347 12.714,-38.229 19.319,-57.25c3.826,-11.02 7.426,-22.165 11.501,-33.097c5.25,-14.083 9.106,-38.132 19.616,-49.126c2.663,-2.785 9.282,10.824 9.74,12.23c4.268,13.108 2.306,26.324 -0.731,39.431c-13.635,58.853 -33.387,115.369 -45.307,174.963c-3.997,19.988 -7.666,40.327 -9.999,60.593c-3.039,26.412 -6.548,53.05 -7.712,79.632c-1.483,33.839 -1.888,67.577 -4.363,101.361c-0.358,4.89 -0.707,26.604 -5.141,28.112c-1.65,0.561 -5.139,-5.896 -5.62,-6.874c-4.421,-8.985 -5.656,-19.633 -6.542,-29.456c-2.654,-29.452 -2.54,-59.09 -5.54,-88.487c-0.822,-8.053 -2.424,-25.596 -13.021,-27.404c-11.164,-1.904 -15.55,17.935 -17.227,25.188c-5.23,22.627 -4.793,46.233 -7.401,69.224c-1.061,9.358 -2.171,18.82 -4.355,27.991c-0.072,0.299 -2.02,7.748 -2.358,7.576c-3.484,-1.776 -5.809,-6.459 -7.202,-9.887c-15.048,-37.026 -5.744,-86.32 -3.768,-125.082c3.87,-75.916 2.91,-151.751 7.954,-227.677c1.84,-27.683 5.621,-55.867 12.37,-82.823c1.407,-5.62 3.434,-22.688 12.272,-22.974c13.69,-0.443 13.194,26.032 12.624,34.904c-1.908,29.671 -8.412,58.849 -9.955,88.508c-0.415,7.968 4.252,28.276 13.228,32.725" style="fill:#fff;stroke:#000;stroke-width:10.59px;"/><path d="M900.924,560.745c-0.056,-8.106 1.355,-18.029 7.303,-24.114c16.825,-17.21 31.874,2.25 27.006,20.573c-1.717,6.461 -5.452,11.88 -9.41,17.151" style="fill:#fff;stroke:#000;stroke-width:10.59px;"/></svg>