<?xml version="1.0" encoding="UTF-8" standalone="no"?><!DOCTYPE svg PUBLIC "-//W3C//DTD SVG 1.1//EN" "http://www.w3.org/Graphics/SVG/1.1/DTD/svg11.dtd"><svg width="100%" height="100%" viewBox="0 0 1800 1801" version="1.1" xmlns="http://www.w3.org/2000/svg" xmlns:xlink="http://www.w3.org/1999/xlink" xml:space="preserve" xmlns:serif="http://www.serif.com/" style="fill-rule:evenodd;clip-rule:evenodd;stroke-linecap:round;stroke-linejoin:round;stroke-miterlimit:2;"><rect id="Artboard1" x="0" y="0.144" width="1800" height="1800" style="fill:none;"/><g><circle cx="1494.5" cy="336.905" r="187.365" style="fill:#a2a2a2;"/><path id="pcolor" d="M1504.39,504.905c-0,-95.468 -77.508,-172.975 -172.976,-172.975l-1011.2,-0c-95.468,-0 -172.976,77.507 -172.976,172.975l0,912.466c0,95.468 77.508,172.976 172.976,172.976l1011.2,-0c95.468,-0 172.976,-77.508 172.976,-172.976l-0,-912.466Z" style="fill:#2985c3;fill-opacity:0.22;"/><path d="M1532.27,413.493c-0,-94.059 -76.364,-170.423 -170.423,-170.423l-916.874,-0c-94.06,-0 -170.424,76.364 -170.424,170.423l0,899.001c0,94.059 76.364,170.423 170.424,170.423l916.874,0c94.059,0 170.423,-76.364 170.423,-170.423l-0,-899.001Z" style="fill:#fff;"/><clipPath id="_clip1"><path d="M1532.27,413.493c-0,-94.059 -76.364,-170.423 -170.423,-170.423l-916.874,-0c-94.06,-0 -170.424,76.364 -170.424,170.423l0,899.001c0,94.059 76.364,170.423 170.424,170.423l916.874,0c94.059,0 170.423,-76.364 170.423,-170.423l-0,-899.001Z"/></clipPath><g clip-path="url(#_clip1)"><rect id="pcolor1" serif:id="pcolor" x="205.982" y="124.169" width="460.908" height="1477.65" style="fill:#2985c3;"/></g><g><g><g><path d="M1344.26,532.705c-0,-37.734 -30.635,-68.368 -68.368,-68.368l-371.749,-0c-37.733,-0 -68.368,30.634 -68.368,68.368l-0,367.707c-0,37.733 30.635,68.368 68.368,68.368l371.749,-0c37.733,-0 68.368,-30.635 68.368,-68.368l-0,-367.707Z" style="fill:#3b3b3b;"/><g><path d="M941.036,595.357c-0.184,1.503 0.977,4.477 2.673,6.646c3.768,4.819 7.298,5.359 11.875,1.779c4.337,-3.391 5.115,-8.852 1.723,-13.189c-3.58,-4.578 -7.256,-4.81 -12.075,-1.042c-2.168,1.696 -4.012,4.303 -4.196,5.806Z" style="fill:#d5d5d5;fill-rule:nonzero;"/><path d="M905.875,685.948c-0.814,6.655 8.668,11.083 14.33,6.656c2.891,-2.261 3.92,-8.89 1.565,-11.902c-3.863,-4.939 -15.107,-1.195 -15.895,5.246Z" style="fill:#d5d5d5;fill-rule:nonzero;"/><path d="M1103.21,531.635c-0.525,4.294 3.375,8.039 8.862,8.602c6.038,0.521 8.394,-0.934 10.177,-6.599c1.489,-5.048 -1.85,-9.814 -7.243,-10.256c-4.655,-0.243 -11.323,4.389 -11.796,8.253Z" style="fill:#d5d5d5;fill-rule:nonzero;"/><path d="M1181.43,534.341c-1.129,9.232 10.829,12.111 13.529,3.399c1.61,-5.142 -1.431,-8.782 -6.903,-8.58c-5.378,0.322 -6.101,0.888 -6.626,5.181Z" style="fill:#d5d5d5;fill-rule:nonzero;"/><path d="M936.616,746.361c-0.718,2.309 -0.736,6.011 -0.019,8.169c0.596,2.252 0.066,4.802 -1.139,5.744c-3.252,2.543 -3.322,6.675 -0.307,10.53c2.637,3.373 9.093,4.926 11.864,2.759c0.843,-0.66 2.885,0.462 4.393,2.389c6.311,8.072 17.257,3.201 15.193,-6.639c-1.046,-4.812 -0.726,-5.645 3.747,-8.366c3.509,-1.968 5.18,-4.051 5.495,-6.627c0.957,-8.708 -8.671,-12.827 -16.141,-6.987c-3.855,3.015 -4.069,2.989 -6.55,-1.672c-1.915,-3.939 -3.621,-5.128 -7.271,-5.575c-5.581,-0.683 -7.483,0.61 -9.265,6.275Z" style="fill:#d5d5d5;fill-rule:nonzero;"/><path d="M991.565,708.633c0.27,5.808 2.557,8.484 7.427,8.753c8.09,0.663 13.738,-8.996 8.934,-15.14c-4.899,-6.264 -16.798,-1.619 -16.361,6.387Z" style="fill:#d5d5d5;fill-rule:nonzero;"/><path d="M1152.09,604.073c-0.572,2 -2.604,4.366 -4.453,5.229c-6.578,3.009 -5.357,13.508 1.732,16.119c1.786,0.545 2.769,2.299 2.884,4.928c0.281,4.828 4.399,10.344 8.049,10.79c4.079,0.499 8.401,-3.657 9.057,-9.024c0.473,-3.864 1.248,-4.859 4.024,-5.282c5.619,-0.511 8.641,-3.845 8.172,-8.914c-0.36,-4.184 -0.831,-4.787 -5.464,-6.988c-3.827,-1.666 -5.172,-3.138 -5.622,-5.699c-0.951,-4.692 -4.746,-9.296 -8.06,-9.811c-3.65,-0.446 -9.097,4.008 -10.319,8.652Z" style="fill:#d5d5d5;fill-rule:nonzero;"/><path d="M1063.17,694.188c-3.072,9.974 11.561,15.033 17.131,6.018c3.553,-5.885 0.303,-12.274 -6.875,-13.261c-5.488,-0.563 -8.594,1.672 -10.256,7.243Z" style="fill:#d5d5d5;fill-rule:nonzero;"/><path d="M1189.97,625.703c-3.601,8.058 -3.252,13.221 1.364,19.124c3.957,5.06 8.167,4.485 16.318,-2.471c4.122,-3.417 7.559,-7.464 7.716,-8.752c0.499,-4.079 -10.282,-18.362 -14.146,-18.835c-4.723,-0.578 -6.944,1.547 -11.252,10.934Z" style="fill:#d5d5d5;fill-rule:nonzero;"/><path d="M1091.88,741.823c-0.709,5.797 1.929,9.17 7.108,9.586c5.084,0.295 8.939,-2.72 9.329,-7.684c0.295,-5.084 -2.814,-9.06 -7.684,-9.329c-5.299,-0.321 -8.096,2.06 -8.753,7.427Z" style="fill:#d5d5d5;fill-rule:nonzero;"/><path d="M940.99,890.488c-0.656,5.367 -0.212,6.184 5.144,7.82c2.953,0.797 5.42,0.227 8.311,-2.034c4.94,-3.862 5.601,-7.485 2.115,-11.943c-1.413,-1.807 -3.737,-3.29 -5.24,-3.474c-4.173,-0.619 -9.726,4.694 -10.33,9.631Z" style="fill:#d5d5d5;fill-rule:nonzero;"/><path d="M1184,722.589c-0.764,10.693 11.248,13.143 15.729,3.232c3.747,-8.366 -4.964,-15.533 -12.072,-9.975c-1.927,1.507 -3.489,4.476 -3.657,6.743Z" style="fill:#d5d5d5;fill-rule:nonzero;"/><path d="M1000.92,875.268c-1.835,6.095 3.21,12.05 9.055,10.586c9.316,-2.237 9.426,-16.496 0.195,-17.625c-4.508,-0.552 -7.614,1.683 -9.25,7.039Z" style="fill:#d5d5d5;fill-rule:nonzero;"/><path d="M1137.91,771.641c-0.184,1.503 0.816,4.022 2.229,5.829c1.507,1.928 3.711,3.505 5.214,3.689c1.502,0.183 4.236,-0.789 6.043,-2.203c1.807,-1.413 3.411,-3.831 3.594,-5.334c0.184,-1.503 -0.694,-4.116 -2.202,-6.044c-1.413,-1.807 -3.737,-3.29 -5.24,-3.473c-1.503,-0.184 -4.237,0.789 -6.044,2.202c-1.807,1.413 -3.41,3.832 -3.594,5.334Z" style="fill:#d5d5d5;fill-rule:nonzero;"/><path d="M1123.08,796.629c-0.467,1.141 -0.19,4.225 0.5,6.598c1.177,3.739 0.684,5.095 -2.93,7.921c-3.373,2.638 -4.28,4.706 -4.056,8.22c0.427,4.519 0.71,4.88 4.993,6.385c2.618,0.865 5.838,1.259 7.084,0.866c1.247,-0.392 3.409,0.635 4.728,2.322c1.413,1.807 4.125,2.793 7.089,2.61c4.184,-0.359 4.907,-0.925 6.212,-4.469c0.839,-2.403 3.379,-5.361 6.312,-7.072c5.531,-3.354 7.288,-8.805 3.99,-13.021c-1.884,-2.41 -8.769,-4.015 -12.079,-2.785c-1.367,0.486 -2.377,-1.054 -4.145,-5.301c-2.945,-7.987 -8.667,-11.084 -13.512,-7.101c-1.928,1.508 -3.814,3.565 -4.186,4.827Z" style="fill:#d5d5d5;fill-rule:nonzero;"/><path d="M1171.92,786.588c-1.489,5.048 1.522,17.836 5.385,22.775c2.826,3.615 11.041,5.927 13.691,3.854c0.844,-0.659 2.405,-3.627 3.537,-6.648c1.772,-4.686 1.459,-6.577 -2.341,-12.925c-6.682,-11.276 -8.053,-12.533 -12.829,-12.682c-5.446,-0.012 -5.807,0.27 -7.443,5.626Z" style="fill:#d5d5d5;fill-rule:nonzero;"/><path d="M1230.24,770.3c-0.315,2.576 0.014,5.231 0.768,6.195c5.181,6.626 16.07,0.44 13.245,-7.64c-1.365,-3.981 -2.265,-4.635 -6.397,-4.705c-6.089,-0.091 -6.933,0.568 -7.616,6.15Z" style="fill:#d5d5d5;fill-rule:nonzero;"/><path d="M1091.25,895.688c-1.787,3.922 2.694,9.154 7.051,8.271c5.001,-0.804 6.119,-9.056 1.58,-11.137c-4.042,-1.693 -7.205,-0.772 -8.631,2.866Z" style="fill:#d5d5d5;fill-rule:nonzero;"/><path d="M1289.92,868.462c-2.628,10.792 10.602,17.531 15.701,7.913c1.855,-3.586 1.407,-10.613 -0.854,-13.504c-1.507,-1.928 -9.812,-2.617 -11.86,-1.016c-0.964,0.754 -2.311,3.749 -2.987,6.607Z" style="fill:#d5d5d5;fill-rule:nonzero;"/></g></g><path id="pcolor2" serif:id="pcolor" d="M1071.89,644.263c26.752,-0 48.471,21.719 48.471,48.471c0,26.752 -21.719,48.471 -48.471,48.471c-26.752,0 -48.471,-21.719 -48.471,-48.471c-0,-26.752 21.719,-48.471 48.471,-48.471Zm0,12.58c19.809,-0 35.891,16.082 35.891,35.891c0,19.809 -16.082,35.891 -35.891,35.891c-19.809,0 -35.891,-16.082 -35.891,-35.891c-0,-19.809 16.082,-35.891 35.891,-35.891Z" style="fill:#2985c3;"/></g><path id="pcolor3" serif:id="pcolor" d="M969.555,379.945l240.93,-0c7.233,-0 13.105,-5.872 13.105,-13.105c-0,-7.232 -5.872,-13.104 -13.105,-13.104l-240.93,-0c-7.232,-0 -13.104,5.872 -13.104,13.104c0,7.233 5.872,13.105 13.104,13.105Z" style="fill:#2985c3;"/><path d="M1344.26,1117.67c-0,-46.981 -38.143,-85.124 -85.124,-85.124l-338.237,0c-46.981,0 -85.124,38.143 -85.124,85.124l-0,170.248c-0,46.981 38.143,85.123 85.124,85.123l338.237,0c46.981,0 85.124,-38.142 85.124,-85.123l-0,-170.248Z" style="fill:none;"/><clipPath id="_clip2"><path d="M1344.26,1117.67c-0,-46.981 -38.143,-85.124 -85.124,-85.124l-338.237,0c-46.981,0 -85.124,38.143 -85.124,85.124l-0,170.248c-0,46.981 38.143,85.123 85.124,85.123l338.237,0c46.981,0 85.124,-38.142 85.124,-85.123l-0,-170.248Z"/></clipPath><g clip-path="url(#_clip2)"><path d="M835.778,1199.05c16.886,0.013 98.917,2.829 108.073,10.261c43.582,35.375 15.397,100.609 97.622,96.427c86.754,-4.412 62.102,-81.796 95.986,-103.999c20.71,-13.569 58.082,9.736 79.768,10.216c27.96,0.618 46.86,-16.811 72.435,-23.178c17.454,-4.345 37.403,1.539 54.601,3.475" style="fill:none;stroke:#a2a2a2;stroke-width:25px;"/></g><path d="M1344.26,1117.67c-0,-46.981 -38.143,-85.124 -85.124,-85.124l-338.237,0c-46.981,0 -85.124,38.143 -85.124,85.124l-0,170.248c-0,46.981 38.143,85.123 85.124,85.123l338.237,0c46.981,0 85.124,-38.142 85.124,-85.123l-0,-170.248Zm-25,0l-0,170.248c-0,33.183 -26.941,60.123 -60.124,60.123l-338.237,0c-33.183,0 -60.124,-26.94 -60.124,-60.123c-0,-0 -0,-170.248 -0,-170.248c-0,-33.183 26.941,-60.124 60.124,-60.124c-0,0 338.237,0 338.237,0c33.183,0 60.124,26.941 60.124,60.124Z" style="fill:#dcdcdc;"/></g><path d="M730.56,598.954c0,-17.566 -14.261,-31.828 -31.827,-31.828l-335.007,0c-17.566,0 -31.827,14.262 -31.827,31.828l-0,63.654c-0,17.566 14.261,31.827 31.827,31.827l335.007,0c17.566,0 31.827,-14.261 31.827,-31.827l0,-63.654Z" style="fill:#fff;"/><g><path d="M346.576,790.275l240.93,0" style="fill:none;stroke:#fff;stroke-width:25px;"/><path d="M346.576,862.92l240.93,0" style="fill:none;stroke:#fff;stroke-width:25px;"/><path d="M346.576,935.712l240.93,-0" style="fill:none;stroke:#fff;stroke-width:25px;"/></g><path d="M610.692,1108.91c-0,-34.959 -28.383,-63.342 -63.343,-63.342l-152.851,-0c-34.96,-0 -63.343,28.383 -63.343,63.342l0,126.686c0,34.96 28.383,63.342 63.343,63.342l152.851,0c34.96,0 63.343,-28.382 63.343,-63.342l-0,-126.686Z" style="fill:#fff;fill-opacity:0.44;"/><path d="M797.16,557.285c-0,-31.364 -25.464,-56.827 -56.828,-56.827l-335.007,-0c-31.363,-0 -56.827,25.463 -56.827,56.827c0,-0 0,63.654 0,63.654c0,31.364 25.464,56.827 56.827,56.827l335.007,0c31.364,0 56.828,-25.463 56.828,-56.827l-0,-63.654Zm-25,-0c-0,-17.566 -14.262,-31.827 -31.828,-31.827l-335.007,-0c-17.566,-0 -31.827,14.261 -31.827,31.827l0,63.654c0,17.566 14.261,31.827 31.827,31.827l335.007,0c17.566,0 31.828,-14.261 31.828,-31.827l-0,-63.654Z" style="fill:#a2a2a2;fill-opacity:0.55;"/><circle cx="1656.05" cy="451.522" r="71.578" style="fill:#3b3b3b;"/></g></svg>