<?xml version="1.0" encoding="UTF-8" standalone="no"?><!DOCTYPE svg PUBLIC "-//W3C//DTD SVG 1.1//EN" "http://www.w3.org/Graphics/SVG/1.1/DTD/svg11.dtd"><svg width="100%" height="100%" viewBox="0 0 1801 1801" version="1.1" xmlns="http://www.w3.org/2000/svg" xmlns:xlink="http://www.w3.org/1999/xlink" xml:space="preserve" xmlns:serif="http://www.serif.com/" style="fill-rule:evenodd;clip-rule:evenodd;stroke-linecap:round;stroke-linejoin:round;stroke-miterlimit:1.5;"><rect id="trappist-1h" x="0.667" y="0.756" width="1800" height="1800" style="fill:none;"/><g><path id="pcolor" d="M1351.79,618.284c115.667,67.352 155.357,216.743 88.576,333.399c-66.78,116.656 -214.905,156.685 -330.573,89.334c-115.667,-67.352 -155.357,-216.743 -88.577,-333.399c66.781,-116.656 214.906,-156.685 330.574,-89.334Z" style="fill:#2985c3;"/><path d="M1005.06,179.903c247.403,144.059 332.296,463.592 189.458,713.11c-142.838,249.517 -459.664,335.136 -707.067,191.077c-247.403,-144.059 -332.296,-463.593 -189.458,-713.11c142.838,-249.517 459.664,-335.136 707.067,-191.077Z" style="fill:#a2a2a2;"/><path d="M591.232,1481.1c5.278,-45.067 14.263,-202.012 11.693,-201.875c-18.968,1.009 -200.939,44.271 -301.876,-102.002c-85.129,-123.365 -20.299,-227.803 31.432,-370.878c17.312,-47.88 175.737,-442.64 197.777,-434.881c25.647,9.03 -35.873,134.869 -16.118,128.835c12.118,-3.701 114.093,-247.051 129.156,-241.167c35.08,13.705 -88.385,270.751 -66.447,285.473c33.516,22.49 195.166,-332.404 241.728,-321.221c30.761,7.388 -154.043,339.655 -187.573,392.136c-13.854,21.684 46.828,-69.215 118.355,-73.398c39.138,-2.29 65.027,10.875 82.026,35.763c17.539,25.678 24.949,64.363 -16.153,146.382c-11.576,23.1 -72.923,41.893 -52.608,57.948c25.48,20.135 -14.134,54.005 -52.533,72.638c-35.446,17.199 -81.724,6.832 -119.16,8.31c-92.702,3.66 -139.734,79.37 -175.291,162.844c-17.595,41.307 -44.634,103.262 -4.078,134.289c33.343,25.509 80.877,13.904 118.098,4.977c67.103,-16.093 125.824,-53.066 179.694,-95.344c26.699,-20.954 51.826,-47.907 80.995,-65.157c45.836,-27.108 100.367,-22.475 151.177,-55.805c3.831,-2.513 9.258,-33.183 10.954,-39.432c9.691,-35.703 29.39,-74.838 72.272,-71.835c29.001,2.03 41.687,28.665 47.479,53.989c1.654,7.232 4.562,29.245 5.972,29.908c3.04,1.431 30.458,-4.511 35.598,-5.283c30.689,-4.606 61.416,-9.091 92.33,-11.868c61.052,-5.485 124.711,-5.264 181.94,19.651c44.696,19.458 83.738,52.224 114.266,92.397c52.759,69.43 80.082,160.983 67.193,244.198m-789.385,-570.285c17.629,-47.147 3.116,-98.791 -45.329,-78.857c-38.09,15.673 -85.221,78.016 -109.116,110.838c-7.544,10.362 -20.834,23.115 -24.062,36.003c-10.892,43.49 58.702,49.454 85.416,43.324c19.223,-4.411 36.659,-18.483 53.95,-22.035c36.636,-7.528 29.338,-52.603 38.463,-82.67l0.678,-6.603Z" style="fill:#fff;stroke:#3b3b3b;stroke-width:9.5px;"/><g><g><path id="pcolor1" serif:id="pcolor" d="M756.984,717.614l49.471,-22.091c230.386,242.761 497.366,756.083 672.078,555.208c-172.383,260.112 -314.545,404.489 -654.349,315.568c229.06,-168.85 91.465,-514.969 -67.2,-848.685Z" style="fill:#2985c3;fill-opacity:0.22;"/><path id="pcolor2" serif:id="pcolor" d="M759.143,655.97c43.841,-12.805 89.743,12.696 102.44,56.913c12.697,44.216 -12.588,90.51 -56.429,103.316c-43.842,12.805 -89.744,-12.696 -102.441,-56.912c-12.697,-44.217 12.588,-90.511 56.43,-103.317Z" style="fill:#2985c3;fill-opacity:0.27;"/><path d="M767.189,683.99c28.508,-8.327 58.356,8.255 66.613,37.007c8.256,28.752 -8.186,58.856 -36.694,67.183c-28.509,8.327 -58.357,-8.256 -66.614,-37.008c-8.256,-28.752 8.186,-58.855 36.695,-67.182Z" style="fill:#3b3b3b;"/></g></g><g><path d="M465.698,408.589c-14.848,-8.285 -27.45,17.295 -29.948,27.295c-3.551,14.216 -5.945,27.265 12.852,35.398c25.308,10.95 34.983,-24.007 22.787,-33.149c-8.086,-6.061 9.156,-21.259 -5.691,-29.544Z" style="fill:#3b3b3b;fill-opacity:0.26;"/><path d="M628.692,857.848c-12.341,3.042 -19.206,29.117 -16.083,47.136c2.153,12.425 12.538,28.713 22.739,37.113c18.957,15.611 31.182,-6.014 30.695,-18.821c-0.658,-17.344 -14.579,-18.592 -20.849,-32.196c-4.102,-8.901 -4.162,-36.274 -16.502,-33.232Z" style="fill:#3b3b3b;fill-opacity:0.26;"/><path d="M732.994,922.617c-16.861,4.506 -17.069,12.676 -11.325,24.397c5.192,10.594 0.086,14.141 4.039,22.816c6.151,13.497 13.027,17.622 25.425,15.424c19.432,-3.446 33.478,-13.427 22.74,-37.101c-6.262,-13.805 -26.956,-29.257 -40.879,-25.536Z" style="fill:#3b3b3b;fill-opacity:0.26;"/></g><g><path d="M925.255,275.249c-45.737,-13.895 -16.281,51.542 -67.675,14.333c-16.421,-11.889 -43.064,-18.712 -46.734,9.035c-0.715,5.409 -1.634,11.808 0.827,17c8.528,17.99 39.911,25.448 37.154,49.135c-4.099,35.208 -48.122,49.305 -33.187,89.156c16.703,44.568 64.426,68.108 91.124,105.475c17.419,24.379 6.19,48.759 13.513,74.739c1.126,3.995 9.091,25.532 18.202,23.482c8.721,-1.962 17.53,-4.891 25.164,-9.682c58.196,-36.526 10.53,-110.172 -6.738,-154.481c-5.125,-13.15 -11.427,-32.106 -8.329,-46.791c9.728,-46.122 26.856,-156.157 -23.321,-171.401Z" style="fill:#3b3b3b;fill-opacity:0.26;"/><path d="M1083.88,593.956c-9.884,-10.654 -19.278,-28.97 -32.251,-29.29c-19.102,-0.471 -22.588,41.684 -21.8,53.558c0.568,8.548 2.206,12.978 5.241,20.758c3.06,7.842 7.841,14.408 9.643,22.731c3.253,15.035 -7.999,35.588 2.705,48.242c32.965,38.974 80.841,-29.758 81.781,-61.671c0.861,-29.291 -32.391,-40.391 -45.319,-54.328Z" style="fill:#3b3b3b;fill-opacity:0.26;"/></g><path d="M1472.19,1154.04c-38.421,73.56 -77.702,137.596 -143.82,189.814c-73.155,57.776 -155.857,108.504 -246.642,131.445c-40.006,10.109 -105.845,21.277 -146.548,20.006c-32.595,-1.017 -65.553,-8.539 -97.626,-14.136c-24.532,-4.281 -120.965,-37.588 -127.493,-15.709c-6.142,20.585 108.981,62.685 109.132,62.918c2.386,3.683 -213.254,-9.23 -225.969,13.618c-9.741,17.506 199.686,23.254 209.73,38.186c11.459,13.118 -158.756,27.625 -159.343,40.71c-1.379,30.707 209.326,20.182 209.326,20.182c-0,-0 -56.86,29.764 -53.892,43.504c9.33,43.188 522.464,-119.588 714.922,-334.112" style="fill:#fff;stroke:#3b3b3b;stroke-width:9.5px;"/></g></svg>